<?xml version="1.0" encoding="UTF-8"?>
<!DOCTYPE svg PUBLIC "-//W3C//DTD SVG 1.1//EN" "http://www.w3.org/Graphics/SVG/1.1/DTD/svg11.dtd">
<svg xmlns="http://www.w3.org/2000/svg" version="1.1" width="2458px" height="512px" style="shape-rendering:geometricPrecision; text-rendering:geometricPrecision; image-rendering:optimizeQuality; fill-rule:evenodd; clip-rule:evenodd" xmlns:xlink="http://www.w3.org/1999/xlink">
<g><path style="opacity:0.998" fill="#5ce1e6" d="M 571.5,-0.5 C 586.833,-0.5 602.167,-0.5 617.5,-0.5C 706.185,10.4051 773.352,54.0717 819,130.5C 855.265,199.865 860.598,271.532 835,345.5C 800.721,430.232 739.221,483.732 650.5,506C 639.424,508.254 628.424,510.087 617.5,511.5C 602.167,511.5 586.833,511.5 571.5,511.5C 475.63,499.444 405.797,450.444 362,364.5C 338.804,313.214 332.471,259.881 343,204.5C 362.864,117.585 413.364,55.7521 494.5,19C 519.379,8.86392 545.046,2.36392 571.5,-0.5 Z"/></g>
<g><path style="opacity:1" fill="#fcfdfd" d="M 674.5,81.5 C 675.043,81.56 675.376,81.8933 675.5,82.5C 670.945,92.4401 666.279,102.273 661.5,112C 636.235,122.635 611.235,133.635 586.5,145C 594.272,168.983 602.439,192.816 611,216.5C 629.747,209.029 648.414,201.362 667,193.5C 666.043,201.163 664.21,208.663 661.5,216C 648.248,221.862 634.915,227.528 621.5,233C 619.445,233.687 617.779,234.854 616.5,236.5C 631.835,284.839 647.169,333.172 662.5,381.5C 690.819,295.226 718.986,208.892 747,122.5C 748.525,121.28 750.359,120.613 752.5,120.5C 754.167,120.667 755.833,120.833 757.5,121C 727.332,214.004 697.665,307.171 668.5,400.5C 659.521,399.734 650.521,399.401 641.5,399.5C 626.172,352.35 610.339,305.35 594,258.5C 578.866,305.403 564.032,352.403 549.5,399.5C 539.856,400.498 530.19,400.832 520.5,400.5C 491.368,307.772 462.035,215.105 432.5,122.5C 442.595,121.874 452.428,122.541 462,124.5C 489,210.5 516,296.5 543,382.5C 558.504,335.322 574.004,288.156 589.5,241C 578.267,205.802 566.934,170.636 555.5,135.5C 556.189,133.647 557.522,132.481 559.5,132C 598.158,115.666 636.491,98.8325 674.5,81.5 Z"/></g>
<g><path style="opacity:0.976" fill="#fefefe" d="M 1735.5,148.5 C 1753.83,148.5 1772.17,148.5 1790.5,148.5C 1790.33,177.835 1790.5,207.169 1791,236.5C 1816.25,208.484 1846.09,202.317 1880.5,218C 1895.32,229.457 1903.48,244.624 1905,263.5C 1905.5,303.165 1905.67,342.832 1905.5,382.5C 1887.17,382.5 1868.83,382.5 1850.5,382.5C 1850.96,344.469 1850.46,306.469 1849,268.5C 1843.64,253.732 1833.14,248.232 1817.5,252C 1804.06,256.441 1795.89,265.608 1793,279.5C 1792.06,283.114 1791.39,286.781 1791,290.5C 1790.5,321.165 1790.33,351.832 1790.5,382.5C 1772.17,382.5 1753.83,382.5 1735.5,382.5C 1735.5,304.5 1735.5,226.5 1735.5,148.5 Z"/></g>
<g><path style="opacity:0.973" fill="#fefefe" d="M 1601.5,153.5 C 1632.76,150.32 1662.42,155.653 1690.5,169.5C 1691.5,185.152 1691.83,200.819 1691.5,216.5C 1682.66,211.869 1673.66,207.369 1664.5,203C 1641.56,193.8 1618.56,193.467 1595.5,202C 1577.04,212.146 1565.87,227.646 1562,248.5C 1557.56,271.593 1560.56,293.593 1571,314.5C 1582.75,332.129 1599.25,341.629 1620.5,343C 1635.64,343.7 1650.3,341.366 1664.5,336C 1673.66,331.631 1682.66,327.131 1691.5,322.5C 1691.83,338.181 1691.5,353.848 1690.5,369.5C 1654.93,386.459 1617.93,390.292 1579.5,381C 1531.65,366.477 1505.15,334.311 1500,284.5C 1495.86,250.507 1503.86,219.841 1524,192.5C 1544.95,169.775 1570.78,156.775 1601.5,153.5 Z"/></g>
<g><path style="opacity:0.98" fill="#fefefe" d="M 944.5,157.5 C 963.179,157.167 981.845,157.5 1000.5,158.5C 1013.49,211.458 1026.32,264.458 1039,317.5C 1051.5,264.153 1064,210.819 1076.5,157.5C 1095.51,157.167 1114.51,157.5 1133.5,158.5C 1146.31,211.083 1158.81,263.75 1171,316.5C 1184.29,263.667 1197.12,210.667 1209.5,157.5C 1228.17,157.5 1246.83,157.5 1265.5,157.5C 1248.16,231.856 1230.66,306.189 1213,380.5C 1190.24,381.494 1167.41,381.827 1144.5,381.5C 1131.81,325.74 1118.64,270.073 1105,214.5C 1091.39,270.073 1078.22,325.74 1065.5,381.5C 1042.82,381.833 1020.16,381.5 997.5,380.5C 979.359,306.271 961.693,231.938 944.5,157.5 Z"/></g>
<g><path style="opacity:0.986" fill="#fefefe" d="M 1302.5,157.5 C 1354.83,157.5 1407.17,157.5 1459.5,157.5C 1459.5,172.167 1459.5,186.833 1459.5,201.5C 1426.83,201.5 1394.17,201.5 1361.5,201.5C 1361.5,215.167 1361.5,228.833 1361.5,242.5C 1392.17,242.5 1422.83,242.5 1453.5,242.5C 1453.5,257.167 1453.5,271.833 1453.5,286.5C 1422.83,286.5 1392.17,286.5 1361.5,286.5C 1361.5,318.167 1361.5,349.833 1361.5,381.5C 1341.83,381.5 1322.17,381.5 1302.5,381.5C 1302.5,306.833 1302.5,232.167 1302.5,157.5 Z"/></g>
<g><path style="opacity:0.979" fill="#fefefe" d="M 2167.5,165.5 C 2185.83,165.5 2204.17,165.5 2222.5,165.5C 2222.5,181.5 2222.5,197.5 2222.5,213.5C 2240.83,213.5 2259.17,213.5 2277.5,213.5C 2277.5,226.5 2277.5,239.5 2277.5,252.5C 2259.17,252.5 2240.83,252.5 2222.5,252.5C 2222.33,278.169 2222.5,303.835 2223,329.5C 2223.97,337.466 2228.47,341.633 2236.5,342C 2248.83,342.5 2261.16,342.667 2273.5,342.5C 2273.5,355.5 2273.5,368.5 2273.5,381.5C 2250.46,381.936 2227.46,381.436 2204.5,380C 2187.07,377.232 2175.9,367.398 2171,350.5C 2169.46,344.254 2168.46,337.921 2168,331.5C 2167.5,305.169 2167.33,278.835 2167.5,252.5C 2158.83,252.5 2150.17,252.5 2141.5,252.5C 2141.5,239.5 2141.5,226.5 2141.5,213.5C 2150.17,213.5 2158.83,213.5 2167.5,213.5C 2167.5,197.5 2167.5,181.5 2167.5,165.5 Z"/></g>
<g><path style="opacity:0.976" fill="#fefefe" d="M 2003.5,209.5 C 2018.17,209.333 2032.84,209.5 2047.5,210C 2088.73,212.568 2110.57,234.401 2113,275.5C 2113.5,310.832 2113.67,346.165 2113.5,381.5C 2095.17,381.5 2076.83,381.5 2058.5,381.5C 2058.67,373.826 2058.5,366.159 2058,358.5C 2040.29,381.078 2017.12,389.912 1988.5,385C 1958.74,378.98 1943.41,360.813 1942.5,330.5C 1942.65,300.841 1957.32,283.008 1986.5,277C 1992.78,275.675 1999.12,274.675 2005.5,274C 2023.16,273.5 2040.83,273.333 2058.5,273.5C 2058.44,257.598 2050.44,248.765 2034.5,247C 2007.54,243.304 1981.87,247.471 1957.5,259.5C 1956.5,245.516 1956.17,231.516 1956.5,217.5C 1972.17,214.056 1987.83,211.389 2003.5,209.5 Z M 2030.5,305.5 C 2039.83,305.5 2049.17,305.5 2058.5,305.5C 2059.76,324.487 2052.1,338.32 2035.5,347C 2022.58,351.749 2011.08,349.582 2001,340.5C 1993.19,322.28 1999.03,311.114 2018.5,307C 2022.69,306.824 2026.69,306.324 2030.5,305.5 Z"/></g>
<g><path style="opacity:1" fill="#fafdfd" d="M 522.5,416.5 C 528.328,416.05 533.995,416.716 539.5,418.5C 540.647,420.765 540.814,423.098 540,425.5C 533.62,421.283 527.62,421.616 522,426.5C 520,431.5 520,436.5 522,441.5C 527.62,446.384 533.62,446.717 540,442.5C 540.957,445.379 540.457,447.879 538.5,450C 518.367,454.703 509.534,446.87 512,426.5C 514.354,421.916 517.854,418.583 522.5,416.5 Z"/></g>
<g><path style="opacity:1" fill="#fafdfd" d="M 547.5,416.5 C 550.5,416.5 553.5,416.5 556.5,416.5C 556.5,420.833 556.5,425.167 556.5,429.5C 561.167,429.5 565.833,429.5 570.5,429.5C 570.5,425.167 570.5,420.833 570.5,416.5C 573.167,416.5 575.833,416.5 578.5,416.5C 578.5,428.167 578.5,439.833 578.5,451.5C 575.833,451.5 573.167,451.5 570.5,451.5C 570.5,446.5 570.5,441.5 570.5,436.5C 565.833,436.5 561.167,436.5 556.5,436.5C 556.5,441.5 556.5,446.5 556.5,451.5C 553.5,451.5 550.5,451.5 547.5,451.5C 547.5,439.833 547.5,428.167 547.5,416.5 Z"/></g>
<g><path style="opacity:1" fill="#fbfdfd" d="M 596.5,416.5 C 600.226,416.177 603.893,416.511 607.5,417.5C 612.078,428.651 616.078,439.984 619.5,451.5C 612.981,453.327 609.648,450.994 609.5,444.5C 604.5,444.5 599.5,444.5 594.5,444.5C 594.335,446.827 593.669,448.993 592.5,451C 589.5,451.667 586.5,451.667 583.5,451C 588.13,439.61 592.463,428.11 596.5,416.5 Z"/></g>
<g><path style="opacity:1" fill="#f9fdfd" d="M 616.5,416.5 C 627.167,416.5 637.833,416.5 648.5,416.5C 648.5,418.833 648.5,421.167 648.5,423.5C 644.833,423.5 641.167,423.5 637.5,423.5C 637.5,432.833 637.5,442.167 637.5,451.5C 634.5,451.5 631.5,451.5 628.5,451.5C 628.5,442.167 628.5,432.833 628.5,423.5C 624.5,423.5 620.5,423.5 616.5,423.5C 616.5,421.167 616.5,418.833 616.5,416.5 Z"/></g>
<g><path style="opacity:1" fill="#69e3e7" d="M 601.5,425.5 C 603.737,429.534 605.404,433.868 606.5,438.5C 603.5,438.5 600.5,438.5 597.5,438.5C 598.435,434.031 599.768,429.697 601.5,425.5 Z"/></g>
</svg>
